# xmcd
#
# Track frame offsets: 
#        150
#        29448
#        49337
#        81985
#        109844
#        143527
#        177741
#        209264
#        237846
#        270194
#        305567
#
# Disc length: 4256 seconds
#
# Revision: 1
# Processed by: cddbd v1.5.1PL2 Copyright (c) Steve Scherf et al.
# Submitted via: ExactAudioCopy v0.95a3
#
DISCID=98109e0b
DTITLE=Various Artist - Freude Am Tanzen - Compilation 01
DYEAR=2005
DGENRE=Deep House, Tech House, Minimal
TTITLE0=Gamat 3000 - Feeling Love
TTITLE1=Soulphiction - Black Woman
TTITLE2=Funky Transport - Hell Bells
TTITLE3=Wighnomy Brothers and Robag Wruhme - Bobb
TTITLE4=Hemmann and Kaden - Sense
TTITLE5=Wighnomy Brothers and Robag Wruhme  - Bodyrock
TTITLE6=Mark Henning - With The Folks
TTITLE7=DJ Koze - Lighta Spuba
TTITLE8=Hemman and Kaden - Vaganza
TTITLE9=Wighnomy Brothers and Robag Wruhme - Pele Bloss
TTITLE10=DJ Koze - Smornin
EXTD=
EXTT0=
EXTT1=
EXTT2=
EXTT3=
EXTT4=
EXTT5=
EXTT6=
EXTT7=
EXTT8=
EXTT9=
EXTT10=
PLAYORDER=
